#!OML:ASF H:\Dans Jumps\Project 1\Capture day 1\Session 1\subject.ASF
:FULLY-SPECIFIED
:DEGREES
435
root -0.116247 16.7531 0.48197 0.348082 -0.526282 -1.11867
lowerback 3.57398 -1.02151 -0.572478
upperback 3.10513 -1.38818 1.85454
thorax 1.24367 -0.72492 2.25723
lowerneck -11.4875 0.830011 -1.26824
upperneck 33.134 1.24633 0.77301
head 12.9438 0.481345 0.697561
rclavicle 6.16232e-015 3.18055e-015
rhumerus -27.7408 -15.9162 -79.3005
rradius 24.3452
rwrist 36.1325
rhand -21.5022 -24.9887
rfingers 7.12502
rthumb 4.88942 -54.9123
lclavicle 6.16232e-015 3.18055e-015
lhumerus -28.0962 4.95971 85.6794
lradius 12.2947
lwrist -3.44188
lhand -25.9613 -2.55653
lfingers 7.12502
lthumb 0.583167 27.4224
rfemur -26.2382 -2.85517 18.7247
rtibia 46.911
rfoot -17.9025 -2.67486
rtoes 6.41418
lfemur -25.1432 6.65931 -16.0306
ltibia 43.599
lfoot -14.4058 9.26046
ltoes -7.54171
436
root -0.109534 16.8354 0.49942 0.924505 -0.46139 -1.04475
lowerback 3.39778 -1.06429 -0.600066
upperback 3.00516 -1.44511 1.84584
thorax 1.24222 -0.753019 2.26237
lowerneck -11.4796 0.798379 -1.26087
upperneck 32.9391 1.211 0.72847
head 12.8604 0.462093 0.672097
rclavicle -6.95746e-015 -7.95139e-016
rhumerus -28.337 -16.1742 -78.8892
rradius 24.2484
rwrist 36.1603
rhand -21.4745 -24.9332
rfingers 7.12502
rthumb 4.91618 -54.8562
lclavicle -6.95746e-015 -7.95139e-016
lhumerus -29.1048 4.67102 85.6043
lradius 12.058
lwrist -4.77989
lhand -25.4249 -2.31369
lfingers 7.12502
lthumb 1.1012 27.6632
rfemur -26.1143 -2.81907 18.6173
rtibia 45.5727
rfoot -17.2732 -2.52143
rtoes 7.53093
lfemur -24.8863 6.68609 -16.1977
ltibia 42.0731
lfoot -14.1007 8.84421
ltoes -7.29289
437
root -0.102381 16.9125 0.51607 1.48558 -0.438668 -0.964194
lowerback 3.23906 -1.08951 -0.629708
upperback 2.91286 -1.47863 1.8338
thorax 1.23789 -0.769421 2.2649
lowerneck -11.4845 0.769205 -1.23944
upperneck 32.7319 1.18129 0.667994
head 12.7752 0.445122 0.638979
rclavicle -1.40143e-014 -1.39149e-014
rhumerus -28.9354 -16.5219 -78.4361
rradius 24.138
rwrist 36.1445
rhand -21.4542 -24.8767
rfingers 7.12502
rthumb 4.93578 -54.7992
lclavicle -1.40143e-014 -1.39149e-014
lhumerus -30.1172 4.0711 85.6848
lradius 11.9452
lwrist -5.72001
lhand -24.7676 -2.08336
lfingers 7.12502
lthumb 1.73603 27.8893
rfemur -26.013 -2.75387 18.4979
rtibia 44.2804
rfoot -16.6552 -2.36321
rtoes 8.69555
lfemur -24.632 6.77184 -16.3707
ltibia 40.5875
lfoot -13.8334 8.44781
ltoes -7.19526
438
root -0.0950991 16.9842 0.531609 2.03163 -0.459704 -0.901852
lowerback 3.09694 -1.10015 -0.639618
upperback 2.83048 -1.49235 1.82479
thorax 1.23323 -0.775683 2.25928
lowerneck -11.5148 0.747641 -1.20875
upperneck 32.5227 1.16477 0.595518
head 12.6951 0.433561 0.601837
rclavicle -8.99501e-015 3.97569e-016
rhumerus -29.5281 -16.9267 -77.9537
rradius 24.0174
rwrist 36.097
rhand -21.4404 -24.8157
rfingers 7.12502
rthumb 4.94909 -54.7379
lclavicle -8.99501e-015 3.97569e-016
lhumerus -31.1321 3.17996 85.9352
lradius 11.9879
lwrist -6.12245
lhand -23.8905 -1.66793
lfingers 7.12502
lthumb 2.58309 28.2962
rfemur -25.9339 -2.63627 18.3937
rtibia 43.0349
rfoot -16.0501 -2.21872
rtoes 9.90202
lfemur -24.3889 6.91231 -16.5208
ltibia 39.1538
lfoot -13.6074 8.07828
ltoes -7.26301
439
root -0.087438 17.0505 0.545916 2.56579 -0.517391 -0.858111
lowerback 2.9691 -1.09584 -0.623381
upperback 2.75785 -1.4857 1.81368
thorax 1.22896 -0.771373 2.23664
lowerneck -11.5668 0.731103 -1.17693
upperneck 32.3114 1.15461 0.526469
head 12.619 0.425397 0.567043
rclavicle 3.13086e-015 -7.55382e-015
rhumerus -30.1138 -17.3707 -77.4531
rradius 23.8902
rwrist 36.0374
rhand -21.4114 -24.7242
rfingers 7.12502
rthumb 4.97711 -54.6457
lclavicle 3.13086e-015 -7.55382e-015
lhumerus -32.1402 2.02819 86.35
lradius 12.153
lwrist -5.97958
lhand -22.9396 -1.19861
lfingers 7.12502
lthumb 3.50147 28.7524
rfemur -25.878 -2.46635 18.3017
rtibia 41.8382
rfoot -15.4624 -2.09302
rtoes 11.107
lfemur -24.1671 7.09291 -16.6515
ltibia 37.7815
lfoot -13.4184 7.75369
ltoes -7.5407
440
root -0.0799782 17.1112 0.558987 3.08621 -0.616557 -0.832843
lowerback 2.85793 -1.08125 -0.590378
upperback 2.69265 -1.46513 1.80311
thorax 1.22203 -0.759892 2.20524
lowerneck -11.6463 0.725983 -1.1505
upperneck 32.1116 1.15991 0.466407
head 12.5536 0.424424 0.539207
rclavicle 3.67752e-015 1.59028e-015
rhumerus -30.6897 -17.8241 -76.9463
rradius 23.7505
rwrist 36.008
rhand -21.3843 -24.6416
rfingers 7.12502
rthumb 5.00327 -54.5625
lclavicle 3.67752e-015 1.59028e-015
lhumerus -33.1584 0.708352 86.8971
lradius 12.4156
lwrist -5.38712
lhand -22.0415 -0.847038
lfingers 7.12502
lthumb 4.36868 29.0879
rfemur -25.8435 -2.22592 18.2233
rtibia 40.6927
rfoot -14.8956 -2.00622
rtoes 12.2472
lfemur -23.9692 7.30717 -16.7601
ltibia 36.4824
lfoot -13.2646 7.48025
ltoes -7.99173
441
root -0.0726008 17.1663 0.570575 3.59355 -0.742963 -0.820037
lowerback 2.76456 -1.06266 -0.545438
upperback 2.63346 -1.43907 1.7919
thorax 1.21081 -0.745517 2.16675
lowerneck -11.7443 0.732759 -1.13742
upperneck 31.918 1.18149 0.420598
head 12.4946 0.430778 0.521686
rclavicle -1.60519e-014 2.34566e-014
rhumerus -31.2512 -18.2634 -76.4443
rradius 23.5972
rwrist 36.0179
rhand -21.3452 -24.5905
rfingers 7.12502
rthumb 5.04101 -54.5105
lclavicle -1.60519e-014 2.34566e-014
lhumerus -34.1832 -0.651536 87.518
lradius 12.7432
lwrist -4.5073
lhand -21.2382 -0.594997
lfingers 7.12502
lthumb 5.14433 29.3226
rfemur -25.8277 -1.93292 18.1513
rtibia 39.6027
rfoot -14.3618 -1.95956
rtoes 13.2865
lfemur -23.8016 7.53151 -16.8545
ltibia 35.2626
lfoot -13.1288 7.26056
ltoes -8.57028
442
root -0.0657795 17.216 0.580645 4.08246 -0.894123 -0.81971
lowerback 2.69103 -1.04155 -0.495668
upperback 2.58616 -1.40973 1.78075
thorax 1.20052 -0.729544 2.1259
lowerneck -11.8743 0.750886 -1.12857
upperneck 31.7335 1.21778 0.384819
head 12.4461 0.444281 0.511111
rclavicle 9.54166e-015 -1.23246e-014
rhumerus -31.7859 -18.6703 -75.9628
rradius 23.4312
rwrist 36.0731
rhand -21.3127 -24.5794
rfingers 7.12502
rthumb 5.07243 -54.4987
lclavicle 9.54166e-015 -1.23246e-014
lhumerus -35.1901 -1.98937 88.1779
lradius 13.1058
lwrist -3.42134
lhand -20.5679 -0.425485
lfingers 7.12502
lthumb 5.79157 29.4754
rfemur -25.8235 -1.5862 18.0891
rtibia 38.5719
rfoot -13.868 -1.96516
rtoes 14.2116
lfemur -23.6638 7.75471 -16.9312
ltibia 34.1279
lfoot -12.9828 7.09121
ltoes -9.19141
443
root -0.0594757 17.2605 0.58907 4.55252 -1.05326 -0.811114
lowerback 2.6429 -1.02488 -0.4636
upperback 2.54518 -1.38657 1.76758
thorax 1.18325 -0.716946 2.09348
lowerneck -12.0231 0.778544 -1.12732
upperneck 31.5548 1.2671 0.357923
head 12.404 0.463691 0.507264
rclavicle -1.04362e-015 7.15625e-015
rhumerus -32.2899 -19.0587 -75.4945
rradius 23.2387
rwrist 36.2041
rhand -21.2887 -24.6185
rfingers 7.12502
rthumb 5.09561 -54.5372
lclavicle -1.04362e-015 7.15625e-015
lhumerus -36.18 -3.22726 88.8369
lradius 13.4813
lwrist -2.24699
lhand -19.9251 -0.210114
lfingers 7.12502
lthumb 6.41215 29.6728
rfemur -25.829 -1.21844 18.0174
rtibia 37.6047
rfoot -13.4265 -2.02086
rtoes 14.9559
lfemur -23.5581 7.95598 -17.014
ltibia 33.0762
lfoot -12.7977 6.9572
ltoes -9.7642
444
root -0.0539188 17.3002 0.595811 5.00103 -1.21034 -0.799529
lowerback 2.61471 -1.01336 -0.445907
upperback 2.51814 -1.37062 1.75416
thorax 1.1698 -0.708309 2.06924
lowerneck -12.1944 0.810063 -1.12511
upperneck 31.3724 1.32214 0.330395
head 12.3652 0.485652 0.503981
rclavicle 1.1778e-014 -1.66979e-014
rhumerus -32.7529 -19.4219 -75.048
rradius 23.0282
rwrist 36.4005
rhand -21.2743 -24.696
rfingers 7.12502
rthumb 5.10951 -54.6144
lclavicle 1.1778e-014 -1.66979e-014
lhumerus -37.1125 -4.30115 89.4439
lradius 13.8398
lwrist -1.08277
lhand -19.3262 0.0299112
lfingers 7.12502
lthumb 6.99027 29.8945
rfemur -25.8405 -0.848117 17.9476
rtibia 36.7011
rfoot -13.0388 -2.12815
rtoes 15.5128
lfemur -23.4858 8.12136 -17.0947
ltibia 32.1054
lfoot -12.5485 6.83032
ltoes -10.1651
445
root -0.0489232 17.3356 0.601146 5.4287 -1.35332 -0.763345
lowerback 2.60772 -1.00768 -0.462951
upperback 2.49984 -1.36295 1.73548
thorax 1.15453 -0.704343 2.05956
lowerneck -12.3741 0.841254 -1.11674
upperneck 31.1826 1.37584 0.300333
head 12.3254 0.507486 0.498552
rclavicle 1.0138e-014 7.15625e-015
rhumerus -33.1903 -19.7735 -74.6135
rradius 22.807
rwrist 36.6687
rhand -21.266 -24.788
rfingers 7.12502
rthumb 5.11751 -54.7062
lclavicle 1.0138e-014 7.15625e-015
lhumerus -37.9804 -5.20635 89.9831
lradius 14.1603
lwrist 0.0148907
lhand -18.8261 0.241687
lfingers 7.12502
lthumb 7.47299 30.0897
rfemur -25.8576 -0.508975 17.8593
rtibia 35.8628
rfoot -12.7045 -2.27088
rtoes 15.8746
lfemur -23.4443 8.24066 -17.1996
ltibia 31.2065
lfoot -12.2216 6.68169
ltoes -10.2893
446
root -0.044781 17.3671 0.605093 5.8332 -1.47613 -0.718667
lowerback 2.62605 -1.00874 -0.500755
upperback 2.48741 -1.36459 1.71825
thorax 1.13205 -0.705346 2.06359
lowerneck -12.5675 0.871936 -1.10447
upperneck 30.9964 1.42964 0.26479
head 12.2903 0.529085 0.490576
rclavicle 3.97569e-016 -1.19271e-014
rhumerus -33.6093 -20.1197 -74.1816
rradius 22.5741
rwrist 37.0138
rhand -21.2741 -24.8856
rfingers 7.12502
rthumb 5.10966 -54.804
lclavicle 3.97569e-016 -1.19271e-014
lhumerus -38.7773 -5.92065 90.4327
lradius 14.4372
lwrist 0.990765
lhand -18.4162 0.435563
lfingers 7.12502
lthumb 7.86863 30.2691
rfemur -25.8772 -0.205109 17.7739
rtibia 35.0871
rfoot -12.4216 -2.44949
rtoes 16.0513
lfemur -23.4297 8.31177 -17.3089
ltibia 30.3739
lfoot -11.8121 6.48967
ltoes -10.0498
